{"title":"Rosencrantz.and.Guildenstern.Are.Undead.2009.Limited.720p.BRRip.","uid":5957789,"size":1349149406,"categoryP":"video","categoryS":"hd___movies","magnet":"?xt=urn:btih:519e2f666cbf860bff1a07aabe39bb8f33a6d37b&amp;dn=Rosencrantz.and.Guildenstern.Are.Undead.2009.Limited.720p.BRRip.&amp;tr=udp%3A%2F%2Ftracker.openbittorrent.com%3A80&amp;tr=udp%3A%2F%2Fopen.demonii.com%3A1337&amp;tr=udp%3A%2F%2Ftracker.coppersurfer.tk%3A6969&amp;tr=udp%3A%2F%2Fexodus.desync.com%3A6969","seeders":4,"leechers":1,"uploader":".BONE.","files":9,"time":1289803507,"description":"Genre:Comedy\nLanguage:English\nhttp://www.imdb.com/title/tt1122775/\nSource:Limited.720p.Bluray.X264.DIMENSION\n\nGeneral\nComplete name :Rosencrantz.and.Guildenstern.Are.Undead.2009.Limited.720p.BRRip.H264.Feel-Free\nFormat : MPEG-4\nFormat profile : Base Media\nCodec ID : mp42\nFile size : 1.25 GiB\nDuration : 1h 22mn\nOverall bit rate : 2 163 Kbps\nVideo #1\nCodec ID : avc1\nCodec ID/Info : Advanced Video Coding\nDuration : 1h 22mn\nBit rate mode : Variable\nBit rate : 1 683 Kbps\nWidth : 1 280 pixels\nHeight : 720 pixels\nDisplay aspect ratio : 16:9\nFrame rate mode : Constant\nFrame rate : 23.976 fps\nResolution : 24 bits\nColorimetry : 4:2:0\nScan type : Progressive\nBits/(Pixel*Frame) : 0.076\nStream size : 997 MiB (78%)\nAudio #2\nID : 2\nFormat : AAC\nFormat/Info : Advanced Audio Codec\nFormat version : Version 4\nFormat profile : LC\nFormat settings, SBR : No\nCodec ID : 40\nDuration : 1h 22mn\nBit rate mode : Constant\nBit rate : 476 Kbps\nNominal bit rate : 480 Kbps\nChannel(s) : 6 channels\nChannel positions : Front: L C R, Rear: L R, LFE\nSampling rate : 48.0 KHz\nResolution : 16 bits\nStream size : 282 MiB (22%)\n\n\nPlot:\nJulian Marsh is an out of work ladies' man who lands a job directing a bizarre adaptation of Hamlet. After casting his best friend and his ex-girlfriend in the show, Julian finds himself in the middle of a two thousand year old conspiracy that explains the connection between Shakespeare, the Holy Grail and some seriously sexy vampires...\n\nTRAILER:\nhttp://www.imdb.com/video/screenplay/vi2673215257/ &lt;a href=&quot;\nhttp://rapidhdd.com/images/388670vlcsnap-2010-11-15-07h28m09s13.png&quot; rel=&quot;nofollow&quot; target=&quot;_NEW&quot;&gt;\nhttp://rapidhdd.com/images/388670vlcsnap-2010-11-15-07h28m09s13.png&lt;/a&gt; &lt;a href=&quot;\nhttp://www.rapidhdd.com/images/162506vlcsnap-2010-11-15-07h31m09s58.png&quot; rel=&quot;nofollow&quot; target=&quot;_NEW&quot;&gt;\nhttp://www.rapidhdd.com/images/162506vlcsnap-2010-11-15-07h31m09s58.png&lt;/a&gt; &lt;a href=&quot;\nhttp://www.rapidhdd.com/images/18771vlcsnap-2010-11-15-07h36m59s221.png&quot; rel=&quot;nofollow&quot; target=&quot;_NEW&quot;&gt;\nhttp://www.rapidhdd.com/images/18771vlcsnap-2010-11-15-07h36m59s221.png&lt;/a&gt; &lt;a href=&quot;\nhttp://www.rapidhdd.com/images/219883vlcsnap-2010-11-15-07h34m02s245.png&quot; rel=&quot;nofollow&quot; target=&quot;_NEW&quot;&gt;\nhttp://www.rapidhdd.com/images/219883vlcsnap-2010-11-15-07h34m02s245.png&lt;/a&gt; &lt;a href=&quot;\nhttp://www.rapidhdd.com/images/771351vlcsnap-2010-11-15-07h31m46s167.png&quot; rel=&quot;nofollow&quot; target=&quot;_NEW&quot;&gt;\nhttp://www.rapidhdd.com/images/771351vlcsnap-2010-11-15-07h31m46s167.png&lt;/a&gt;\n","torrent":{"xt":"urn:btih:519e2f666cbf860bff1a07aabe39bb8f33a6d37b","amp;dn":"Rosencrantz.and.Guildenstern.Are.Undead.2009.Limited.720p.BRRip.","amp;tr":["udp%3A%2F%2Ftracker.openbittorrent.com%3A80","udp%3A%2F%2Fopen.demonii.com%3A1337","udp%3A%2F%2Ftracker.coppersurfer.tk%3A6969","udp%3A%2F%2Fexodus.desync.com%3A6969"],"infoHash":"519e2f666cbf860bff1a07aabe39bb8f33a6d37b","infoHashBuffer":{"type":"Buffer","data":[81,158,47,102,108,191,134,11,255,26,7,170,190,57,187,143,51,166,211,123]},"announce":[],"urlList":[]}}